<svg width="350" height="350" viewBox="0 0 350 350" fill="none" xmlns="http://www.w3.org/2000/svg">
<rect width="350" height="350" fill="#1F1F1E"/>
<path d="M169.122 62.2705C172.627 59.7241 177.373 59.7241 180.878 62.2705L280.396 134.575C283.901 137.121 285.367 141.635 284.028 145.755L246.016 262.745C244.677 266.865 240.838 269.655 236.505 269.655H113.495C109.162 269.655 105.323 266.865 103.984 262.745L65.9715 145.755C64.6328 141.635 66.0994 137.121 69.6042 134.575L169.122 62.2705Z" fill="#FFFDF9"/>
<path d="M184.72 230.7C179.463 234.52 172.344 234.52 167.087 230.7L126.23 201.016C120.973 197.196 118.773 190.426 120.781 184.246L136.387 136.216C138.395 130.036 144.154 125.851 150.653 125.851L201.154 125.851C207.652 125.851 213.412 130.036 215.42 136.216L231.026 184.246C233.034 190.426 230.834 197.196 225.577 201.016L184.72 230.7Z" fill="#1F1F1E"/>
<circle cx="175.5" cy="175.5" r="21.5" fill="#FFFDF9"/>
</svg>
