<svg width="1509" height="234" viewBox="0 0 1509 234" fill="none" xmlns="http://www.w3.org/2000/svg">
<path d="M111.122 4.27093C114.627 1.72449 119.373 1.72449 122.878 4.27093L222.396 76.5746C225.901 79.1211 227.367 83.6351 226.029 87.7553L188.016 204.746C186.677 208.866 182.837 211.655 178.505 211.655H55.4943C51.1622 211.655 47.3224 208.866 45.9836 204.746L7.97189 87.7553C6.63319 83.6352 8.0991 79.1211 11.6037 76.5746L111.122 4.27093ZM92.6526 67.851C86.1542 67.851 80.395 72.0359 78.3869 78.2162L62.7815 126.246C60.7734 132.426 62.9726 139.196 68.2297 143.016L109.086 172.7C114.343 176.519 121.463 176.519 126.72 172.7L167.576 143.016C172.834 139.196 175.034 132.426 173.026 126.246L157.42 78.2162C155.412 72.0359 149.652 67.851 143.154 67.851H92.6526ZM117.5 96.0004C129.374 96.0006 139 105.626 139 117.5C139 129.374 129.374 139 117.5 139C105.626 139 96.0004 129.374 96.0002 117.5C96.0002 105.626 105.626 96.0004 117.5 96.0004Z" fill="#1E1E1E"/>
<mask id="path-2-outside-1_1_3" maskUnits="userSpaceOnUse" x="289" y="29" width="672" height="169" fill="black">
<rect fill="white" x="289" y="29" width="672" height="169"/>
<path d="M370.68 40L427.44 191.8V194H406.98L392.46 153.74H325.14L310.62 194H290.6V191.8L347.14 40H370.68ZM331.3 136.58H386.3L359.24 61.34H358.36L331.3 136.58ZM442.761 194V81.58H458.821L460.361 100.5H461.241C463.588 94.1933 467.401 89.28 472.681 85.76C477.961 82.0933 484.048 80.26 490.941 80.26H501.061V98.08H492.261C471.581 98.08 461.241 111.867 461.241 139.44V194H442.761ZM565.884 195.98C555.177 195.98 547.55 193.413 543.004 188.28C538.457 183.147 536.184 175.667 536.184 165.84V97.2H517.484V81.58H536.624V57.6L552.464 51.44H554.664V81.58H582.164V97.2H554.664V164.3C554.664 169.727 555.837 173.687 558.184 176.18C560.53 178.527 564.27 179.7 569.404 179.7C573.51 179.7 577.177 179.26 580.404 178.38H582.604V194.22C577.91 195.393 572.337 195.98 565.884 195.98ZM643.513 195.98C627.379 195.98 614.839 190.627 605.893 179.92C596.946 169.067 592.473 155.06 592.473 137.9C592.473 120.74 596.799 106.733 605.453 95.88C614.106 85.0267 626.719 79.6 643.293 79.6C658.693 79.6 670.646 84.7333 679.153 95C687.659 105.12 691.913 118.247 691.913 134.38V143.4H611.833C611.833 154.4 614.546 163.2 619.973 169.8C625.399 176.253 633.246 179.48 643.513 179.48C650.993 179.48 657.226 177.94 662.213 174.86C667.199 171.78 670.426 167.307 671.893 161.44H690.373C688.906 171.707 683.773 180.067 674.973 186.52C666.173 192.827 655.686 195.98 643.513 195.98ZM612.053 128H672.773C672.773 118.613 670.206 110.987 665.073 105.12C660.086 99.1067 652.826 96.1 643.293 96.1C633.319 96.1 625.693 99.1067 620.413 105.12C615.133 110.987 612.346 118.613 612.053 128ZM711.659 194V81.58H727.719L729.259 100.5H730.139C732.486 94.1933 736.299 89.28 741.579 85.76C746.859 82.0933 752.946 80.26 759.839 80.26H769.959V98.08H761.159C740.479 98.08 730.139 111.867 730.139 139.44V194H711.659ZM795.622 60.02C787.115 60.02 782.862 55.6933 782.862 47.04C782.862 38.5333 787.115 34.28 795.622 34.28C799.729 34.28 802.882 35.4533 805.082 37.8C807.282 40 808.382 43.08 808.382 47.04C808.382 51 807.282 54.1533 805.082 56.5C802.882 58.8467 799.729 60.02 795.622 60.02ZM786.382 194V81.58H804.862V194H786.382ZM861.601 195.98C849.721 195.98 840.188 192.68 833.001 186.08C825.961 179.48 822.441 171.193 822.441 161.22C822.441 150.953 826.255 142.52 833.881 135.92C841.655 129.32 853.315 126.02 868.861 126.02C877.955 126.02 887.195 127.34 896.581 129.98V118.76C896.581 112.013 894.381 106.44 889.981 102.04C885.728 97.64 879.275 95.44 870.621 95.44C862.701 95.44 856.615 97.3467 852.361 101.16C848.108 104.973 845.908 109.74 845.761 115.46H827.941C827.941 104.753 831.901 96.1 839.821 89.5C847.888 82.9 858.155 79.6 870.621 79.6C884.555 79.6 895.335 83.2667 902.961 90.6C910.735 97.9333 914.621 107.173 914.621 118.32V194H899.001L897.681 178.16H896.801C889.761 190.04 878.028 195.98 861.601 195.98ZM864.901 180.58C874.288 180.58 881.915 177.647 887.781 171.78C893.648 165.913 896.581 158.8 896.581 150.44V144.72C888.075 142.08 878.835 140.76 868.861 140.76C850.381 140.76 841.141 147.507 841.141 161C841.141 166.867 843.121 171.633 847.081 175.3C851.188 178.82 857.128 180.58 864.901 180.58ZM940.984 194V31.2H959.464V194H940.984Z"/>
</mask>
<path d="M370.68 40L427.44 191.8V194H406.98L392.46 153.74H325.14L310.62 194H290.6V191.8L347.14 40H370.68ZM331.3 136.58H386.3L359.24 61.34H358.36L331.3 136.58ZM442.761 194V81.58H458.821L460.361 100.5H461.241C463.588 94.1933 467.401 89.28 472.681 85.76C477.961 82.0933 484.048 80.26 490.941 80.26H501.061V98.08H492.261C471.581 98.08 461.241 111.867 461.241 139.44V194H442.761ZM565.884 195.98C555.177 195.98 547.55 193.413 543.004 188.28C538.457 183.147 536.184 175.667 536.184 165.84V97.2H517.484V81.58H536.624V57.6L552.464 51.44H554.664V81.58H582.164V97.2H554.664V164.3C554.664 169.727 555.837 173.687 558.184 176.18C560.53 178.527 564.27 179.7 569.404 179.7C573.51 179.7 577.177 179.26 580.404 178.38H582.604V194.22C577.91 195.393 572.337 195.98 565.884 195.98ZM643.513 195.98C627.379 195.98 614.839 190.627 605.893 179.92C596.946 169.067 592.473 155.06 592.473 137.9C592.473 120.74 596.799 106.733 605.453 95.88C614.106 85.0267 626.719 79.6 643.293 79.6C658.693 79.6 670.646 84.7333 679.153 95C687.659 105.12 691.913 118.247 691.913 134.38V143.4H611.833C611.833 154.4 614.546 163.2 619.973 169.8C625.399 176.253 633.246 179.48 643.513 179.48C650.993 179.48 657.226 177.94 662.213 174.86C667.199 171.78 670.426 167.307 671.893 161.44H690.373C688.906 171.707 683.773 180.067 674.973 186.52C666.173 192.827 655.686 195.98 643.513 195.98ZM612.053 128H672.773C672.773 118.613 670.206 110.987 665.073 105.12C660.086 99.1067 652.826 96.1 643.293 96.1C633.319 96.1 625.693 99.1067 620.413 105.12C615.133 110.987 612.346 118.613 612.053 128ZM711.659 194V81.58H727.719L729.259 100.5H730.139C732.486 94.1933 736.299 89.28 741.579 85.76C746.859 82.0933 752.946 80.26 759.839 80.26H769.959V98.08H761.159C740.479 98.08 730.139 111.867 730.139 139.44V194H711.659ZM795.622 60.02C787.115 60.02 782.862 55.6933 782.862 47.04C782.862 38.5333 787.115 34.28 795.622 34.28C799.729 34.28 802.882 35.4533 805.082 37.8C807.282 40 808.382 43.08 808.382 47.04C808.382 51 807.282 54.1533 805.082 56.5C802.882 58.8467 799.729 60.02 795.622 60.02ZM786.382 194V81.58H804.862V194H786.382ZM861.601 195.98C849.721 195.98 840.188 192.68 833.001 186.08C825.961 179.48 822.441 171.193 822.441 161.22C822.441 150.953 826.255 142.52 833.881 135.92C841.655 129.32 853.315 126.02 868.861 126.02C877.955 126.02 887.195 127.34 896.581 129.98V118.76C896.581 112.013 894.381 106.44 889.981 102.04C885.728 97.64 879.275 95.44 870.621 95.44C862.701 95.44 856.615 97.3467 852.361 101.16C848.108 104.973 845.908 109.74 845.761 115.46H827.941C827.941 104.753 831.901 96.1 839.821 89.5C847.888 82.9 858.155 79.6 870.621 79.6C884.555 79.6 895.335 83.2667 902.961 90.6C910.735 97.9333 914.621 107.173 914.621 118.32V194H899.001L897.681 178.16H896.801C889.761 190.04 878.028 195.98 861.601 195.98ZM864.901 180.58C874.288 180.58 881.915 177.647 887.781 171.78C893.648 165.913 896.581 158.8 896.581 150.44V144.72C888.075 142.08 878.835 140.76 868.861 140.76C850.381 140.76 841.141 147.507 841.141 161C841.141 166.867 843.121 171.633 847.081 175.3C851.188 178.82 857.128 180.58 864.901 180.58ZM940.984 194V31.2H959.464V194H940.984Z" fill="#1E1E1E"/>
<path d="M370.68 40L372.054 39.4863L371.697 38.5333H370.68V40ZM427.44 191.8H428.907V191.535L428.814 191.286L427.44 191.8ZM427.44 194V195.467H428.907V194H427.44ZM406.98 194L405.6 194.498L405.95 195.467H406.98V194ZM392.46 153.74L393.84 153.242L393.49 152.273H392.46V153.74ZM325.14 153.74V152.273H324.11L323.76 153.242L325.14 153.74ZM310.62 194V195.467H311.65L312 194.498L310.62 194ZM290.6 194H289.133V195.467H290.6V194ZM290.6 191.8L289.226 191.288L289.133 191.536V191.8H290.6ZM347.14 40V38.5333H346.121L345.766 39.4881L347.14 40ZM331.3 136.58L329.92 136.084L329.214 138.047H331.3V136.58ZM386.3 136.58V138.047H388.386L387.68 136.084L386.3 136.58ZM359.24 61.34L360.62 60.8436L360.271 59.8733H359.24V61.34ZM358.36 61.34V59.8733H357.329L356.98 60.8436L358.36 61.34ZM370.68 40L369.306 40.5137L426.066 192.314L427.44 191.8L428.814 191.286L372.054 39.4863L370.68 40ZM427.44 191.8H425.973V194H427.44H428.907V191.8H427.44ZM427.44 194V192.533H406.98V194V195.467H427.44V194ZM406.98 194L408.36 193.502L393.84 153.242L392.46 153.74L391.08 154.238L405.6 194.498L406.98 194ZM392.46 153.74V152.273H325.14V153.74V155.207H392.46V153.74ZM325.14 153.74L323.76 153.242L309.24 193.502L310.62 194L312 194.498L326.52 154.238L325.14 153.74ZM310.62 194V192.533H290.6V194V195.467H310.62V194ZM290.6 194H292.067V191.8H290.6H289.133V194H290.6ZM290.6 191.8L291.974 192.312L348.514 40.5119L347.14 40L345.766 39.4881L289.226 191.288L290.6 191.8ZM347.14 40V41.4667H370.68V40V38.5333H347.14V40ZM331.3 136.58V138.047H386.3V136.58V135.113H331.3V136.58ZM386.3 136.58L387.68 136.084L360.62 60.8436L359.24 61.34L357.86 61.8364L384.92 137.076L386.3 136.58ZM359.24 61.34V59.8733H358.36V61.34V62.8067H359.24V61.34ZM358.36 61.34L356.98 60.8436L329.92 136.084L331.3 136.58L332.68 137.076L359.74 61.8364L358.36 61.34ZM442.761 194H441.294V195.467H442.761V194ZM442.761 81.58V80.1133H441.294V81.58H442.761ZM458.821 81.58L460.283 81.461L460.173 80.1133H458.821V81.58ZM460.361 100.5L458.899 100.619L459.009 101.967H460.361V100.5ZM461.241 100.5V101.967H462.26L462.616 101.011L461.241 100.5ZM472.681 85.76L473.494 86.9803L473.506 86.9726L473.518 86.9647L472.681 85.76ZM501.061 80.26H502.528V78.7933H501.061V80.26ZM501.061 98.08V99.5467H502.528V98.08H501.061ZM461.241 194V195.467H462.708V194H461.241ZM442.761 194H444.228V81.58H442.761H441.294V194H442.761ZM442.761 81.58V83.0467H458.821V81.58V80.1133H442.761V81.58ZM458.821 81.58L457.359 81.699L458.899 100.619L460.361 100.5L461.823 100.381L460.283 81.461L458.821 81.58ZM460.361 100.5V101.967H461.241V100.5V99.0333H460.361V100.5ZM461.241 100.5L462.616 101.011C464.861 94.9757 468.487 90.3183 473.494 86.9803L472.681 85.76L471.867 84.5397C466.314 88.2416 462.314 93.411 459.866 99.9885L461.241 100.5ZM472.681 85.76L473.518 86.9647C478.534 83.4811 484.324 81.7267 490.941 81.7267V80.26V78.7933C483.771 78.7933 477.388 80.7055 471.844 84.5553L472.681 85.76ZM490.941 80.26V81.7267H501.061V80.26V78.7933H490.941V80.26ZM501.061 80.26H499.594V98.08H501.061H502.528V80.26H501.061ZM501.061 98.08V96.6133H492.261V98.08V99.5467H501.061V98.08ZM492.261 98.08V96.6133C481.563 96.6133 473.326 100.202 467.823 107.54C462.378 114.799 459.774 125.512 459.774 139.44H461.241H462.708C462.708 125.794 465.274 115.828 470.169 109.3C475.005 102.852 482.279 99.5467 492.261 99.5467V98.08ZM461.241 139.44H459.774V194H461.241H462.708V139.44H461.241ZM461.241 194V192.533H442.761V194V195.467H461.241V194ZM543.004 188.28L541.906 189.252L541.906 189.252L543.004 188.28ZM536.184 97.2H537.65V95.7333H536.184V97.2ZM517.484 97.2H516.017V98.6667H517.484V97.2ZM517.484 81.58V80.1133H516.017V81.58H517.484ZM536.624 81.58V83.0467H538.09V81.58H536.624ZM536.624 57.6L536.092 56.2331L535.157 56.5967V57.6H536.624ZM552.464 51.44V49.9733H552.188L551.932 50.0731L552.464 51.44ZM554.664 51.44H556.13V49.9733H554.664V51.44ZM554.664 81.58H553.197V83.0467H554.664V81.58ZM582.164 81.58H583.63V80.1133H582.164V81.58ZM582.164 97.2V98.6667H583.63V97.2H582.164ZM554.664 97.2V95.7333H553.197V97.2H554.664ZM558.184 176.18L557.116 177.185L557.131 177.201L557.147 177.217L558.184 176.18ZM580.404 178.38V176.913H580.207L580.018 176.965L580.404 178.38ZM582.604 178.38H584.07V176.913H582.604V178.38ZM582.604 194.22L582.959 195.643L584.07 195.365V194.22H582.604ZM565.884 195.98V194.513C555.363 194.513 548.245 191.986 544.102 187.308L543.004 188.28L541.906 189.252C546.855 194.84 554.991 197.447 565.884 197.447V195.98ZM543.004 188.28L544.102 187.308C539.877 182.538 537.65 175.462 537.65 165.84H536.184H534.717C534.717 175.872 537.036 183.755 541.906 189.252L543.004 188.28ZM536.184 165.84H537.65V97.2H536.184H534.717V165.84H536.184ZM536.184 97.2V95.7333H517.484V97.2V98.6667H536.184V97.2ZM517.484 97.2H518.95V81.58H517.484H516.017V97.2H517.484ZM517.484 81.58V83.0467H536.624V81.58V80.1133H517.484V81.58ZM536.624 81.58H538.09V57.6H536.624H535.157V81.58H536.624ZM536.624 57.6L537.155 58.9669L552.995 52.8069L552.464 51.44L551.932 50.0731L536.092 56.2331L536.624 57.6ZM552.464 51.44V52.9067H554.664V51.44V49.9733H552.464V51.44ZM554.664 51.44H553.197V81.58H554.664H556.13V51.44H554.664ZM554.664 81.58V83.0467H582.164V81.58V80.1133H554.664V81.58ZM582.164 81.58H580.697V97.2H582.164H583.63V81.58H582.164ZM582.164 97.2V95.7333H554.664V97.2V98.6667H582.164V97.2ZM554.664 97.2H553.197V164.3H554.664H556.13V97.2H554.664ZM554.664 164.3H553.197C553.197 169.891 554.399 174.298 557.116 177.185L558.184 176.18L559.252 175.175C557.275 173.075 556.13 169.562 556.13 164.3H554.664ZM558.184 176.18L557.147 177.217C559.887 179.957 564.089 181.167 569.404 181.167V179.7V178.233C564.452 178.233 561.174 177.096 559.221 175.143L558.184 176.18ZM569.404 179.7V181.167C573.612 181.167 577.412 180.716 580.79 179.795L580.404 178.38L580.018 176.965C576.942 177.804 573.408 178.233 569.404 178.233V179.7ZM580.404 178.38V179.847H582.604V178.38V176.913H580.404V178.38ZM582.604 178.38H581.137V194.22H582.604H584.07V178.38H582.604ZM582.604 194.22L582.248 192.797C577.702 193.934 572.254 194.513 565.884 194.513V195.98V197.447C572.42 197.447 578.118 196.853 582.959 195.643L582.604 194.22ZM605.893 179.92L604.761 180.853L604.767 180.86L605.893 179.92ZM605.453 95.88L606.599 96.7943L606.599 96.7943L605.453 95.88ZM679.153 95L678.023 95.9358L678.03 95.9437L679.153 95ZM691.913 143.4V144.867H693.379V143.4H691.913ZM611.833 143.4V141.933H610.366V143.4H611.833ZM619.973 169.8L618.84 170.731L618.845 170.738L618.85 170.744L619.973 169.8ZM662.213 174.86L661.442 173.612L661.442 173.612L662.213 174.86ZM671.893 161.44V159.973H670.748L670.47 161.084L671.893 161.44ZM690.373 161.44L691.825 161.647L692.064 159.973H690.373V161.44ZM674.973 186.52L675.827 187.712L675.834 187.707L675.84 187.703L674.973 186.52ZM612.053 128L610.587 127.954L610.539 129.467H612.053V128ZM672.773 128V129.467H674.239V128H672.773ZM665.073 105.12L663.944 106.056L663.956 106.071L663.969 106.086L665.073 105.12ZM620.413 105.12L621.503 106.101L621.509 106.094L621.515 106.088L620.413 105.12ZM643.513 195.98V194.513C627.738 194.513 615.641 189.299 607.018 178.98L605.893 179.92L604.767 180.86C614.038 191.955 627.021 197.447 643.513 197.447V195.98ZM605.893 179.92L607.024 178.987C598.339 168.451 593.939 154.797 593.939 137.9H592.473H591.006C591.006 155.323 595.553 169.683 604.761 180.853L605.893 179.92ZM592.473 137.9H593.939C593.939 120.992 598.198 107.331 606.599 96.7943L605.453 95.88L604.306 94.9657C595.4 106.135 591.006 120.488 591.006 137.9H592.473ZM605.453 95.88L606.599 96.7943C614.919 86.359 627.069 81.0667 643.293 81.0667V79.6V78.1333C626.369 78.1333 613.293 83.6943 604.306 94.9657L605.453 95.88ZM643.293 79.6V81.0667C658.332 81.0667 669.84 86.0596 678.023 95.9358L679.153 95L680.282 94.0642C671.452 83.4071 659.054 78.1333 643.293 78.1333V79.6ZM679.153 95L678.03 95.9437C686.268 105.745 690.446 118.513 690.446 134.38H691.913H693.379C693.379 117.98 689.05 104.495 680.275 94.0563L679.153 95ZM691.913 134.38H690.446V143.4H691.913H693.379V134.38H691.913ZM691.913 143.4V141.933H611.833V143.4V144.867H691.913V143.4ZM611.833 143.4H610.366C610.366 154.64 613.142 163.801 618.84 170.731L619.973 169.8L621.106 168.869C615.95 162.599 613.299 154.16 613.299 143.4H611.833ZM619.973 169.8L618.85 170.744C624.616 177.6 632.916 180.947 643.513 180.947V179.48V178.013C633.576 178.013 626.183 174.906 621.095 168.856L619.973 169.8ZM643.513 179.48V180.947C651.191 180.947 657.709 179.365 662.983 176.108L662.213 174.86L661.442 173.612C656.743 176.515 650.795 178.013 643.513 178.013V179.48ZM662.213 174.86L662.983 176.108C668.307 172.82 671.759 168.02 673.316 161.796L671.893 161.44L670.47 161.084C669.093 166.593 666.092 170.74 661.442 173.612L662.213 174.86ZM671.893 161.44V162.907H690.373V161.44V159.973H671.893V161.44ZM690.373 161.44L688.921 161.233C687.513 171.087 682.606 179.104 674.105 185.337L674.973 186.52L675.84 187.703C684.94 181.03 690.299 172.327 691.825 161.647L690.373 161.44ZM674.973 186.52L674.118 185.328C665.598 191.434 655.419 194.513 643.513 194.513V195.98V197.447C655.953 197.447 666.747 194.219 675.827 187.712L674.973 186.52ZM612.053 128V129.467H672.773V128V126.533H612.053V128ZM672.773 128H674.239C674.239 118.334 671.589 110.34 666.176 104.154L665.073 105.12L663.969 106.086C668.823 111.633 671.306 118.893 671.306 128H672.773ZM665.073 105.12L666.202 104.184C660.875 97.7608 653.157 94.6333 643.293 94.6333V96.1V97.5667C652.495 97.5667 659.297 100.453 663.944 106.056L665.073 105.12ZM643.293 96.1V94.6333C633.01 94.6333 624.935 97.7462 619.311 104.152L620.413 105.12L621.515 106.088C626.45 100.467 633.629 97.5667 643.293 97.5667V96.1ZM620.413 105.12L619.322 104.139C613.768 110.31 610.889 118.29 610.587 127.954L612.053 128L613.519 128.046C613.803 118.937 616.497 111.663 621.503 106.101L620.413 105.12ZM711.659 194H710.193V195.467H711.659V194ZM711.659 81.58V80.1133H710.193V81.58H711.659ZM727.719 81.58L729.181 81.461L729.072 80.1133H727.719V81.58ZM729.259 100.5L727.798 100.619L727.907 101.967H729.259V100.5ZM730.139 100.5V101.967H731.159L731.514 101.011L730.139 100.5ZM741.579 85.76L742.393 86.9803L742.405 86.9726L742.416 86.9647L741.579 85.76ZM769.959 80.26H771.426V78.7933H769.959V80.26ZM769.959 98.08V99.5467H771.426V98.08H769.959ZM730.139 194V195.467H731.606V194H730.139ZM711.659 194H713.126V81.58H711.659H710.193V194H711.659ZM711.659 81.58V83.0467H727.719V81.58V80.1133H711.659V81.58ZM727.719 81.58L726.258 81.699L727.798 100.619L729.259 100.5L730.721 100.381L729.181 81.461L727.719 81.58ZM729.259 100.5V101.967H730.139V100.5V99.0333H729.259V100.5ZM730.139 100.5L731.514 101.011C733.76 94.9757 737.386 90.3183 742.393 86.9803L741.579 85.76L740.766 84.5397C735.213 88.2416 731.212 93.411 728.765 99.9885L730.139 100.5ZM741.579 85.76L742.416 86.9647C747.432 83.4811 753.222 81.7267 759.839 81.7267V80.26V78.7933C752.67 78.7933 746.287 80.7055 740.743 84.5553L741.579 85.76ZM759.839 80.26V81.7267H769.959V80.26V78.7933H759.839V80.26ZM769.959 80.26H768.493V98.08H769.959H771.426V80.26H769.959ZM769.959 98.08V96.6133H761.159V98.08V99.5467H769.959V98.08ZM761.159 98.08V96.6133C750.462 96.6133 742.225 100.202 736.721 107.54C731.277 114.799 728.673 125.512 728.673 139.44H730.139H731.606C731.606 125.794 734.172 115.828 739.068 109.3C743.904 102.852 751.177 99.5467 761.159 99.5467V98.08ZM730.139 139.44H728.673V194H730.139H731.606V139.44H730.139ZM730.139 194V192.533H711.659V194V195.467H730.139V194ZM805.082 37.8L804.012 38.8031L804.028 38.8204L804.045 38.8371L805.082 37.8ZM805.082 56.5L806.152 57.5031L806.152 57.5031L805.082 56.5ZM786.382 194H784.915V195.467H786.382V194ZM786.382 81.58V80.1133H784.915V81.58H786.382ZM804.862 81.58H806.329V80.1133H804.862V81.58ZM804.862 194V195.467H806.329V194H804.862ZM795.622 60.02V58.5533C791.601 58.5533 788.854 57.5326 787.098 55.7468C785.338 53.9563 784.329 51.1468 784.329 47.04H782.862H781.395C781.395 51.5865 782.513 55.267 785.006 57.8032C787.504 60.344 791.136 61.4867 795.622 61.4867V60.02ZM782.862 47.04H784.329C784.329 43.0127 785.335 40.2617 787.089 38.5071C788.844 36.7525 791.595 35.7467 795.622 35.7467V34.28V32.8133C791.143 32.8133 787.514 33.9342 785.015 36.4329C782.516 38.9316 781.395 42.5606 781.395 47.04H782.862ZM795.622 34.28V35.7467C799.442 35.7467 802.161 36.829 804.012 38.8031L805.082 37.8L806.152 36.7969C803.603 34.0777 800.015 32.8133 795.622 32.8133V34.28ZM805.082 37.8L804.045 38.8371C805.9 40.6922 806.915 43.3576 806.915 47.04H808.382H809.849C809.849 42.8024 808.664 39.3078 806.119 36.7629L805.082 37.8ZM808.382 47.04H806.915C806.915 50.7179 805.901 53.4816 804.012 55.4969L805.082 56.5L806.152 57.5031C808.663 54.8251 809.849 51.2821 809.849 47.04H808.382ZM805.082 56.5L804.012 55.4969C802.161 57.471 799.442 58.5533 795.622 58.5533V60.02V61.4867C800.015 61.4867 803.603 60.2223 806.152 57.5031L805.082 56.5ZM786.382 194H787.849V81.58H786.382H784.915V194H786.382ZM786.382 81.58V83.0467H804.862V81.58V80.1133H786.382V81.58ZM804.862 81.58H803.395V194H804.862H806.329V81.58H804.862ZM804.862 194V192.533H786.382V194V195.467H804.862V194ZM833.001 186.08L831.998 187.15L832.004 187.155L832.009 187.16L833.001 186.08ZM833.881 135.92L832.932 134.802L832.922 134.811L833.881 135.92ZM896.581 129.98L896.184 131.392L898.048 131.916V129.98H896.581ZM889.981 102.04L888.927 103.059L888.936 103.068L888.944 103.077L889.981 102.04ZM845.761 115.46V116.927H847.191L847.228 115.498L845.761 115.46ZM827.941 115.46H826.475V116.927H827.941V115.46ZM839.821 89.5L838.893 88.3648L838.882 88.3733L839.821 89.5ZM902.961 90.6L901.945 91.6573L901.955 91.6668L902.961 90.6ZM914.621 194V195.467H916.088V194H914.621ZM899.001 194L897.54 194.122L897.652 195.467H899.001V194ZM897.681 178.16L899.143 178.038L899.031 176.693H897.681V178.16ZM896.801 178.16V176.693H895.966L895.54 177.412L896.801 178.16ZM887.781 171.78L886.744 170.743L886.744 170.743L887.781 171.78ZM896.581 144.72H898.048V143.639L897.016 143.319L896.581 144.72ZM847.081 175.3L846.085 176.376L846.106 176.395L846.127 176.414L847.081 175.3ZM861.601 195.98V194.513C850.005 194.513 840.853 191.3 833.993 185L833.001 186.08L832.009 187.16C839.523 194.06 849.438 197.447 861.601 197.447V195.98ZM833.001 186.08L834.005 185.01C827.271 178.698 823.908 170.803 823.908 161.22H822.441H820.975C820.975 171.583 824.652 180.262 831.998 187.15L833.001 186.08ZM822.441 161.22H823.908C823.908 151.37 827.543 143.345 834.841 137.029L833.881 135.92L832.922 134.811C824.966 141.695 820.975 150.536 820.975 161.22H822.441ZM833.881 135.92L834.831 137.038C842.231 130.755 853.488 127.487 868.861 127.487V126.02V124.553C853.142 124.553 841.079 127.885 832.932 134.802L833.881 135.92ZM868.861 126.02V127.487C877.811 127.487 886.918 128.786 896.184 131.392L896.581 129.98L896.979 128.568C887.472 125.894 878.098 124.553 868.861 124.553V126.02ZM896.581 129.98H898.048V118.76H896.581H895.115V129.98H896.581ZM896.581 118.76H898.048C898.048 111.66 895.718 105.703 891.019 101.003L889.981 102.04L888.944 103.077C893.045 107.177 895.115 112.366 895.115 118.76H896.581ZM889.981 102.04L891.036 101.021C886.408 96.2334 879.505 93.9733 870.621 93.9733V95.44V96.9067C879.044 96.9067 885.048 99.0466 888.927 103.059L889.981 102.04ZM870.621 95.44V93.9733C862.48 93.9733 855.993 95.934 851.382 100.068L852.361 101.16L853.34 102.252C857.236 98.7594 862.923 96.9067 870.621 96.9067V95.44ZM852.361 101.16L851.382 100.068C846.828 104.151 844.452 109.3 844.295 115.422L845.761 115.46L847.228 115.498C847.364 110.18 849.388 105.795 853.34 102.252L852.361 101.16ZM845.761 115.46V113.993H827.941V115.46V116.927H845.761V115.46ZM827.941 115.46H829.408C829.408 105.169 833.189 96.9359 840.76 90.6267L839.821 89.5L838.882 88.3733C830.614 95.264 826.475 104.337 826.475 115.46H827.941ZM839.821 89.5L840.75 90.6351C848.506 84.2895 858.424 81.0667 870.621 81.0667V79.6V78.1333C857.885 78.1333 847.27 81.5104 838.893 88.3649L839.821 89.5ZM870.621 79.6V81.0667C884.3 81.0667 894.669 84.6615 901.945 91.6572L902.961 90.6L903.978 89.5428C896 81.8718 884.81 78.1333 870.621 78.1333V79.6ZM902.961 90.6L901.955 91.6668C909.421 98.7099 913.155 107.558 913.155 118.32H914.621H916.088C916.088 106.789 912.049 97.1567 903.968 89.5331L902.961 90.6ZM914.621 118.32H913.155V194H914.621H916.088V118.32H914.621ZM914.621 194V192.533H899.001V194V195.467H914.621V194ZM899.001 194L900.463 193.878L899.143 178.038L897.681 178.16L896.22 178.282L897.54 194.122L899.001 194ZM897.681 178.16V176.693H896.801V178.16V179.627H897.681V178.16ZM896.801 178.16L895.54 177.412C888.818 188.755 877.626 194.513 861.601 194.513V195.98V197.447C878.43 197.447 890.705 191.325 898.063 178.908L896.801 178.16ZM864.901 180.58V182.047C874.621 182.047 882.64 178.996 888.818 172.817L887.781 171.78L886.744 170.743C881.19 176.297 873.955 179.113 864.901 179.113V180.58ZM887.781 171.78L888.818 172.817C894.963 166.673 898.048 159.186 898.048 150.44H896.581H895.115C895.115 158.414 892.334 165.154 886.744 170.743L887.781 171.78ZM896.581 150.44H898.048V144.72H896.581H895.115V150.44H896.581ZM896.581 144.72L897.016 143.319C888.353 140.631 878.965 139.293 868.861 139.293V140.76V142.227C878.705 142.227 887.797 143.529 896.147 146.121L896.581 144.72ZM868.861 140.76V139.293C859.486 139.293 852.19 140.997 847.207 144.635C842.137 148.337 839.675 153.88 839.675 161H841.141H842.608C842.608 154.626 844.765 150.05 848.936 147.005C853.193 143.896 859.756 142.227 868.861 142.227V140.76ZM841.141 161H839.675C839.675 167.236 841.797 172.406 846.085 176.376L847.081 175.3L848.078 174.224C844.446 170.861 842.608 166.498 842.608 161H841.141ZM847.081 175.3L846.127 176.414C850.595 180.243 856.928 182.047 864.901 182.047V180.58V179.113C857.328 179.113 851.781 177.397 848.036 174.186L847.081 175.3ZM940.984 194H939.517V195.467H940.984V194ZM940.984 31.2V29.7333H939.517V31.2H940.984ZM959.464 31.2H960.93V29.7333H959.464V31.2ZM959.464 194V195.467H960.93V194H959.464ZM940.984 194H942.45V31.2H940.984H939.517V194H940.984ZM940.984 31.2V32.6667H959.464V31.2V29.7333H940.984V31.2ZM959.464 31.2H957.997V194H959.464H960.93V31.2H959.464ZM959.464 194V192.533H940.984V194V195.467H959.464V194Z" fill="#1E1E1E" mask="url(#path-2-outside-1_1_3)"/>
<mask id="path-4-outside-2_1_3" maskUnits="userSpaceOnUse" x="1014" y="38" width="488" height="160" fill="black">
<rect fill="white" x="1014" y="38" width="488" height="160"/>
<path d="M1016.14 194V40H1068.06C1090.35 40 1108.17 47.04 1121.52 61.12C1134.87 75.2 1141.54 93.8267 1141.54 117C1141.54 139.293 1135.01 157.7 1121.96 172.22C1108.91 186.74 1090.94 194 1068.06 194H1016.14ZM1041 170.9H1066.08C1082.07 170.9 1094.24 166.06 1102.6 156.38C1110.96 146.7 1115.14 133.573 1115.14 117C1115.14 100.573 1110.96 87.52 1102.6 77.84C1094.24 68.16 1082.07 63.32 1066.08 63.32H1041V170.9ZM1214.16 195.98C1196.71 195.98 1183.36 190.553 1174.12 179.7C1165.03 168.847 1160.48 154.693 1160.48 137.24C1160.48 119.933 1165.1 105.853 1174.34 95C1183.73 84 1197 78.5 1214.16 78.5C1231.32 78.5 1244.52 84 1253.76 95C1263.15 105.853 1267.84 119.933 1267.84 137.24C1267.84 154.693 1263.22 168.847 1253.98 179.7C1244.74 190.553 1231.47 195.98 1214.16 195.98ZM1214.16 173.76C1232.94 173.76 1242.32 161.587 1242.32 137.24C1242.32 125.653 1239.98 116.707 1235.28 110.4C1230.59 103.947 1223.55 100.72 1214.16 100.72C1204.78 100.72 1197.74 103.947 1193.04 110.4C1188.35 116.707 1186 125.653 1186 137.24C1186 148.827 1188.35 157.847 1193.04 164.3C1197.88 170.607 1204.92 173.76 1214.16 173.76ZM1339.21 195.98C1322.05 195.98 1308.71 190.7 1299.17 180.14C1289.79 169.433 1285.09 155.133 1285.09 137.24C1285.09 119.347 1289.71 105.12 1298.95 94.56C1308.34 83.8533 1321.54 78.5 1338.55 78.5C1353.81 78.5 1365.61 82.5333 1373.97 90.6C1382.33 98.52 1386.95 108.933 1387.83 121.84H1362.75C1362.17 115.387 1359.75 110.253 1355.49 106.44C1351.24 102.627 1345.59 100.72 1338.55 100.72C1329.17 100.72 1322.13 103.947 1317.43 110.4C1312.89 116.853 1310.61 125.8 1310.61 137.24C1310.61 148.827 1312.89 157.847 1317.43 164.3C1322.13 170.753 1329.17 173.98 1338.55 173.98C1345.59 173.98 1351.24 172.147 1355.49 168.48C1359.75 164.667 1362.24 159.46 1362.97 152.86H1388.05C1387.03 165.913 1382.33 176.4 1373.97 184.32C1365.76 192.093 1354.17 195.98 1339.21 195.98ZM1453.37 195.98C1438.41 195.98 1426.68 192.387 1418.17 185.2C1409.81 178.013 1405.48 168.333 1405.19 156.16H1430.27C1430.27 161.733 1432.32 166.207 1436.43 169.58C1440.54 172.807 1446.18 174.42 1453.37 174.42C1467.89 174.42 1475.15 170.167 1475.15 161.66C1475.15 155.06 1470.16 150.733 1460.19 148.68L1440.17 144.94C1419.2 140.687 1408.71 129.54 1408.71 111.5C1408.71 101.967 1412.6 94.12 1420.37 87.96C1428.29 81.6533 1439 78.5 1452.49 78.5C1466.13 78.5 1477.06 81.9467 1485.27 88.84C1493.63 95.7333 1497.81 104.68 1497.81 115.68H1473.17C1472.88 110.4 1470.9 106.293 1467.23 103.36C1463.56 100.28 1458.5 98.74 1452.05 98.74C1446.33 98.74 1441.71 99.9133 1438.19 102.26C1434.82 104.46 1433.13 107.613 1433.13 111.72C1433.13 118.32 1438.12 122.427 1448.09 124.04L1467.45 127.78C1478.3 130.127 1486.52 133.867 1492.09 139C1497.66 143.987 1500.45 151.54 1500.45 161.66C1500.45 172.367 1495.98 180.8 1487.03 186.96C1478.23 192.973 1467.01 195.98 1453.37 195.98Z"/>
</mask>
<path d="M1016.14 194V40H1068.06C1090.35 40 1108.17 47.04 1121.52 61.12C1134.87 75.2 1141.54 93.8267 1141.54 117C1141.54 139.293 1135.01 157.7 1121.96 172.22C1108.91 186.74 1090.94 194 1068.06 194H1016.14ZM1041 170.9H1066.08C1082.07 170.9 1094.24 166.06 1102.6 156.38C1110.96 146.7 1115.14 133.573 1115.14 117C1115.14 100.573 1110.96 87.52 1102.6 77.84C1094.24 68.16 1082.07 63.32 1066.08 63.32H1041V170.9ZM1214.16 195.98C1196.71 195.98 1183.36 190.553 1174.12 179.7C1165.03 168.847 1160.48 154.693 1160.48 137.24C1160.48 119.933 1165.1 105.853 1174.34 95C1183.73 84 1197 78.5 1214.16 78.5C1231.32 78.5 1244.52 84 1253.76 95C1263.15 105.853 1267.84 119.933 1267.84 137.24C1267.84 154.693 1263.22 168.847 1253.98 179.7C1244.74 190.553 1231.47 195.98 1214.16 195.98ZM1214.16 173.76C1232.94 173.76 1242.32 161.587 1242.32 137.24C1242.32 125.653 1239.98 116.707 1235.28 110.4C1230.59 103.947 1223.55 100.72 1214.16 100.72C1204.78 100.72 1197.74 103.947 1193.04 110.4C1188.35 116.707 1186 125.653 1186 137.24C1186 148.827 1188.35 157.847 1193.04 164.3C1197.88 170.607 1204.92 173.76 1214.16 173.76ZM1339.21 195.98C1322.05 195.98 1308.71 190.7 1299.17 180.14C1289.79 169.433 1285.09 155.133 1285.09 137.24C1285.09 119.347 1289.71 105.12 1298.95 94.56C1308.34 83.8533 1321.54 78.5 1338.55 78.5C1353.81 78.5 1365.61 82.5333 1373.97 90.6C1382.33 98.52 1386.95 108.933 1387.83 121.84H1362.75C1362.17 115.387 1359.75 110.253 1355.49 106.44C1351.24 102.627 1345.59 100.72 1338.55 100.72C1329.17 100.72 1322.13 103.947 1317.43 110.4C1312.89 116.853 1310.61 125.8 1310.61 137.24C1310.61 148.827 1312.89 157.847 1317.43 164.3C1322.13 170.753 1329.17 173.98 1338.55 173.98C1345.59 173.98 1351.24 172.147 1355.49 168.48C1359.75 164.667 1362.24 159.46 1362.97 152.86H1388.05C1387.03 165.913 1382.33 176.4 1373.97 184.32C1365.76 192.093 1354.17 195.98 1339.21 195.98ZM1453.37 195.98C1438.41 195.98 1426.68 192.387 1418.17 185.2C1409.81 178.013 1405.48 168.333 1405.19 156.16H1430.27C1430.27 161.733 1432.32 166.207 1436.43 169.58C1440.54 172.807 1446.18 174.42 1453.37 174.42C1467.89 174.42 1475.15 170.167 1475.15 161.66C1475.15 155.06 1470.16 150.733 1460.19 148.68L1440.17 144.94C1419.2 140.687 1408.71 129.54 1408.71 111.5C1408.71 101.967 1412.6 94.12 1420.37 87.96C1428.29 81.6533 1439 78.5 1452.49 78.5C1466.13 78.5 1477.06 81.9467 1485.27 88.84C1493.63 95.7333 1497.81 104.68 1497.81 115.68H1473.17C1472.88 110.4 1470.9 106.293 1467.23 103.36C1463.56 100.28 1458.5 98.74 1452.05 98.74C1446.33 98.74 1441.71 99.9133 1438.19 102.26C1434.82 104.46 1433.13 107.613 1433.13 111.72C1433.13 118.32 1438.12 122.427 1448.09 124.04L1467.45 127.78C1478.3 130.127 1486.52 133.867 1492.09 139C1497.66 143.987 1500.45 151.54 1500.45 161.66C1500.45 172.367 1495.98 180.8 1487.03 186.96C1478.23 192.973 1467.01 195.98 1453.37 195.98Z" fill="#1E1E1E"/>
<path d="M1016.14 194H1014.67V195.467H1016.14V194ZM1016.14 40V38.5333H1014.67V40H1016.14ZM1121.52 61.12L1122.58 60.111L1122.58 60.111L1121.52 61.12ZM1041 170.9H1039.53V172.367H1041V170.9ZM1102.6 156.38L1103.71 157.339L1103.71 157.339L1102.6 156.38ZM1102.6 77.84L1101.49 78.7986L1101.49 78.7986L1102.6 77.84ZM1041 63.32V61.8533H1039.53V63.32H1041ZM1016.14 194H1017.61V40H1016.14H1014.67V194H1016.14ZM1016.14 40V41.4667H1068.06V40V38.5333H1016.14V40ZM1068.06 40V41.4667C1090.02 41.4667 1107.43 48.3856 1120.46 62.129L1121.52 61.12L1122.58 60.111C1108.92 45.6943 1090.69 38.5333 1068.06 38.5333V40ZM1121.52 61.12L1120.46 62.129C1133.5 75.885 1140.07 94.1245 1140.07 117H1141.54H1143.01C1143.01 93.5289 1136.24 74.515 1122.58 60.111L1121.52 61.12ZM1141.54 117H1140.07C1140.07 138.986 1133.65 157.027 1120.87 171.239L1121.96 172.22L1123.05 173.201C1136.38 158.373 1143.01 139.6 1143.01 117H1141.54ZM1121.96 172.22L1120.87 171.239C1108.14 185.396 1090.6 192.533 1068.06 192.533V194V195.467C1091.28 195.467 1109.67 188.084 1123.05 173.201L1121.96 172.22ZM1068.06 194V192.533H1016.14V194V195.467H1068.06V194ZM1041 170.9V172.367H1066.08V170.9V169.433H1041V170.9ZM1066.08 170.9V172.367C1082.38 172.367 1095 167.419 1103.71 157.339L1102.6 156.38L1101.49 155.421C1093.48 164.701 1081.76 169.433 1066.08 169.433V170.9ZM1102.6 156.38L1103.71 157.339C1112.36 147.322 1116.61 133.819 1116.61 117H1115.14H1113.67C1113.67 133.328 1109.56 146.078 1101.49 155.421L1102.6 156.38ZM1115.14 117H1116.61C1116.61 100.324 1112.36 86.8963 1103.71 76.8814L1102.6 77.84L1101.49 78.7986C1109.56 88.1437 1113.67 100.823 1113.67 117H1115.14ZM1102.6 77.84L1103.71 76.8814C1095 66.8007 1082.38 61.8533 1066.08 61.8533V63.32V64.7867C1081.76 64.7867 1093.48 69.5193 1101.49 78.7986L1102.6 77.84ZM1066.08 63.32V61.8533H1041V63.32V64.7867H1066.08V63.32ZM1041 63.32H1039.53V170.9H1041H1042.47V63.32H1041ZM1174.12 179.7L1173 180.642L1173.01 180.651L1174.12 179.7ZM1174.34 95L1173.23 94.048L1173.23 94.0492L1174.34 95ZM1253.76 95L1252.64 95.9433L1252.65 95.9514L1252.65 95.9594L1253.76 95ZM1253.98 179.7L1255.1 180.651L1255.1 180.651L1253.98 179.7ZM1235.28 110.4L1234.1 111.263L1234.1 111.269L1234.11 111.276L1235.28 110.4ZM1193.04 110.4L1194.22 111.276L1194.22 111.269L1194.23 111.263L1193.04 110.4ZM1193.04 164.3L1191.86 165.163L1191.87 165.178L1191.88 165.193L1193.04 164.3ZM1214.16 195.98V194.513C1197.03 194.513 1184.14 189.203 1175.24 178.749L1174.12 179.7L1173.01 180.651C1182.59 191.904 1196.38 197.447 1214.16 197.447V195.98ZM1174.12 179.7L1175.25 178.758C1166.42 168.226 1161.95 154.432 1161.95 137.24H1160.48H1159.02C1159.02 154.955 1163.64 169.467 1173 180.642L1174.12 179.7ZM1160.48 137.24H1161.95C1161.95 120.204 1166.49 106.485 1175.46 95.9508L1174.34 95L1173.23 94.0492C1163.71 105.222 1159.02 119.663 1159.02 137.24H1160.48ZM1174.34 95L1175.46 95.952C1184.51 85.3403 1197.34 79.9667 1214.16 79.9667V78.5V77.0333C1196.66 77.0333 1182.94 82.6597 1173.23 94.048L1174.34 95ZM1214.16 78.5V79.9667C1230.98 79.9667 1243.73 85.3402 1252.64 95.9433L1253.76 95L1254.89 94.0566C1245.31 82.6597 1231.66 77.0333 1214.16 77.0333V78.5ZM1253.76 95L1252.65 95.9594C1261.76 106.494 1266.38 120.21 1266.38 137.24H1267.84H1269.31C1269.31 119.657 1264.53 105.213 1254.87 94.0406L1253.76 95ZM1267.84 137.24H1266.38C1266.38 154.426 1261.83 168.217 1252.87 178.749L1253.98 179.7L1255.1 180.651C1264.61 169.476 1269.31 154.961 1269.31 137.24H1267.84ZM1253.98 179.7L1252.87 178.749C1243.96 189.206 1231.14 194.513 1214.16 194.513V195.98V197.447C1231.8 197.447 1245.52 191.901 1255.1 180.651L1253.98 179.7ZM1214.16 173.76V175.227C1223.89 175.227 1231.41 172.053 1236.44 165.526C1241.42 159.071 1243.79 149.561 1243.79 137.24H1242.32H1240.86C1240.86 149.266 1238.53 158.016 1234.12 163.734C1229.77 169.381 1223.21 172.293 1214.16 172.293V173.76ZM1242.32 137.24H1243.79C1243.79 125.481 1241.41 116.179 1236.46 109.524L1235.28 110.4L1234.11 111.276C1238.54 117.235 1240.86 125.826 1240.86 137.24H1242.32ZM1235.28 110.4L1236.47 109.537C1231.45 102.634 1223.92 99.2533 1214.16 99.2533V100.72V102.187C1223.17 102.187 1229.73 105.259 1234.1 111.263L1235.28 110.4ZM1214.16 100.72V99.2533C1204.4 99.2533 1196.88 102.634 1191.86 109.537L1193.04 110.4L1194.23 111.263C1198.59 105.259 1205.15 102.187 1214.16 102.187V100.72ZM1193.04 110.4L1191.87 109.524C1186.91 116.179 1184.54 125.481 1184.54 137.24H1186H1187.47C1187.47 125.826 1189.78 117.235 1194.22 111.276L1193.04 110.4ZM1186 137.24H1184.54C1184.54 149.002 1186.91 158.368 1191.86 165.163L1193.04 164.3L1194.23 163.437C1189.78 157.325 1187.47 148.651 1187.47 137.24H1186ZM1193.04 164.3L1191.88 165.193C1197.04 171.923 1204.55 175.227 1214.16 175.227V173.76V172.293C1205.29 172.293 1198.72 169.29 1194.21 163.407L1193.04 164.3ZM1299.17 180.14L1298.07 181.107L1298.08 181.115L1298.08 181.123L1299.17 180.14ZM1298.95 94.56L1297.85 93.5931L1297.85 93.5942L1298.95 94.56ZM1373.97 90.6L1372.95 91.6555L1372.96 91.6647L1373.97 90.6ZM1387.83 121.84V123.307H1389.4L1389.29 121.74L1387.83 121.84ZM1362.75 121.84L1361.29 121.973L1361.41 123.307H1362.75V121.84ZM1355.49 106.44L1356.47 105.348L1356.47 105.348L1355.49 106.44ZM1317.43 110.4L1316.25 109.537L1316.24 109.546L1316.23 109.555L1317.43 110.4ZM1317.43 164.3L1316.23 165.145L1316.24 165.154L1316.25 165.163L1317.43 164.3ZM1355.49 168.48L1356.45 169.591L1356.46 169.582L1356.47 169.572L1355.49 168.48ZM1362.97 152.86V151.393H1361.66L1361.51 152.698L1362.97 152.86ZM1388.05 152.86L1389.51 152.975L1389.64 151.393H1388.05V152.86ZM1373.97 184.32L1374.98 185.385L1374.98 185.385L1373.97 184.32ZM1339.21 195.98V194.513C1322.37 194.513 1309.46 189.346 1300.26 179.157L1299.17 180.14L1298.08 181.123C1307.95 192.054 1321.73 197.447 1339.21 197.447V195.98ZM1299.17 180.14L1300.27 179.173C1291.18 168.797 1286.56 154.872 1286.56 137.24H1285.09H1283.63C1283.63 155.395 1288.39 170.069 1298.07 181.107L1299.17 180.14ZM1285.09 137.24H1286.56C1286.56 119.601 1291.11 105.751 1300.06 95.5258L1298.95 94.56L1297.85 93.5942C1288.32 104.489 1283.63 119.092 1283.63 137.24H1285.09ZM1298.95 94.56L1300.05 95.5269C1309.11 85.1999 1321.87 79.9667 1338.55 79.9667V78.5V77.0333C1321.21 77.0333 1307.57 82.5068 1297.85 93.5931L1298.95 94.56ZM1338.55 78.5V79.9667C1353.55 79.9667 1364.94 83.9271 1372.95 91.6554L1373.97 90.6L1374.99 89.5446C1366.28 81.1396 1354.06 77.0333 1338.55 77.0333V78.5ZM1373.97 90.6L1372.96 91.6647C1381.02 99.2997 1385.51 109.352 1386.37 121.94L1387.83 121.84L1389.29 121.74C1388.39 108.515 1383.64 97.7403 1374.98 89.5353L1373.97 90.6ZM1387.83 121.84V120.373H1362.75V121.84V123.307H1387.83V121.84ZM1362.75 121.84L1364.21 121.707C1363.6 114.938 1361.04 109.442 1356.47 105.348L1355.49 106.44L1354.51 107.532C1358.45 111.064 1360.73 115.835 1361.29 121.973L1362.75 121.84ZM1355.49 106.44L1356.47 105.348C1351.89 101.241 1345.87 99.2533 1338.55 99.2533V100.72V102.187C1345.32 102.187 1350.59 104.013 1354.51 107.532L1355.49 106.44ZM1338.55 100.72V99.2533C1328.79 99.2533 1321.27 102.634 1316.25 109.537L1317.43 110.4L1318.62 111.263C1322.98 105.259 1329.54 102.187 1338.55 102.187V100.72ZM1317.43 110.4L1316.23 109.555C1311.45 116.344 1309.15 125.627 1309.15 137.24H1310.61H1312.08C1312.08 125.973 1314.32 117.362 1318.63 111.245L1317.43 110.4ZM1310.61 137.24H1309.15C1309.15 148.994 1311.45 158.353 1316.23 165.145L1317.43 164.3L1318.63 163.455C1314.32 157.34 1312.08 148.659 1312.08 137.24H1310.61ZM1317.43 164.3L1316.25 165.163C1321.27 172.066 1328.79 175.447 1338.55 175.447V173.98V172.513C1329.54 172.513 1322.98 169.441 1318.62 163.437L1317.43 164.3ZM1338.55 173.98V175.447C1345.85 175.447 1351.87 173.541 1356.45 169.591L1355.49 168.48L1354.53 167.369C1350.61 170.753 1345.33 172.513 1338.55 172.513V173.98ZM1355.49 168.48L1356.47 169.572C1361.04 165.479 1363.66 159.918 1364.43 153.022L1362.97 152.86L1361.51 152.698C1360.81 159.002 1358.45 163.854 1354.51 167.388L1355.49 168.48ZM1362.97 152.86V154.327H1388.05V152.86V151.393H1362.97V152.86ZM1388.05 152.86L1386.59 152.745C1385.59 165.49 1381.02 175.619 1372.96 183.255L1373.97 184.32L1374.98 185.385C1383.64 177.181 1388.46 166.337 1389.51 152.975L1388.05 152.86ZM1373.97 184.32L1372.96 183.255C1365.1 190.696 1353.92 194.513 1339.21 194.513V195.98V197.447C1354.42 197.447 1366.42 193.491 1374.98 185.385L1373.97 184.32ZM1418.17 185.2L1417.21 186.312L1417.22 186.32L1418.17 185.2ZM1405.19 156.16V154.693H1403.69L1403.72 156.195L1405.19 156.16ZM1430.27 156.16H1431.74V154.693H1430.27V156.16ZM1436.43 169.58L1435.5 170.713L1435.51 170.723L1435.52 170.733L1436.43 169.58ZM1460.19 148.68L1460.49 147.243L1460.47 147.241L1460.46 147.238L1460.19 148.68ZM1440.17 144.94L1439.88 146.377L1439.89 146.38L1439.9 146.382L1440.17 144.94ZM1420.37 87.96L1421.28 89.1095L1421.28 89.1073L1420.37 87.96ZM1485.27 88.84L1484.33 89.9635L1484.34 89.9716L1485.27 88.84ZM1497.81 115.68V117.147H1499.28V115.68H1497.81ZM1473.17 115.68L1471.7 115.761L1471.78 117.147H1473.17V115.68ZM1467.23 103.36L1466.29 104.483L1466.3 104.494L1466.31 104.505L1467.23 103.36ZM1438.19 102.26L1438.99 103.488L1439 103.484L1439 103.48L1438.19 102.26ZM1448.09 124.04L1448.37 122.6L1448.35 122.596L1448.32 122.592L1448.09 124.04ZM1467.45 127.78L1467.76 126.346L1467.74 126.343L1467.73 126.34L1467.45 127.78ZM1492.09 139L1491.1 140.079L1491.1 140.086L1491.11 140.093L1492.09 139ZM1487.03 186.96L1487.86 188.171L1487.86 188.168L1487.03 186.96ZM1453.37 195.98V194.513C1438.64 194.513 1427.28 190.976 1419.12 184.08L1418.17 185.2L1417.22 186.32C1426.07 193.797 1438.18 197.447 1453.37 197.447V195.98ZM1418.17 185.2L1419.13 184.088C1411.12 177.202 1406.94 167.931 1406.66 156.125L1405.19 156.16L1403.72 156.195C1404.03 168.735 1408.5 178.825 1417.21 186.312L1418.17 185.2ZM1405.19 156.16V157.627H1430.27V156.16V154.693H1405.19V156.16ZM1430.27 156.16H1428.8C1428.8 162.148 1431.03 167.046 1435.5 170.713L1436.43 169.58L1437.36 168.447C1433.61 165.367 1431.74 161.319 1431.74 156.16H1430.27ZM1436.43 169.58L1435.52 170.733C1439.97 174.227 1445.98 175.887 1453.37 175.887V174.42V172.953C1446.39 172.953 1441.1 171.386 1437.34 168.427L1436.43 169.58ZM1453.37 174.42V175.887C1460.72 175.887 1466.48 174.818 1470.45 172.495C1474.53 170.102 1476.62 166.427 1476.62 161.66H1475.15H1473.68C1473.68 165.4 1472.14 168.105 1468.96 169.965C1465.67 171.895 1460.53 172.953 1453.37 172.953V174.42ZM1475.15 161.66H1476.62C1476.62 157.935 1475.18 154.799 1472.37 152.357C1469.61 149.963 1465.6 148.296 1460.49 147.243L1460.19 148.68L1459.89 150.117C1464.76 151.118 1468.22 152.64 1470.45 154.573C1472.62 156.458 1473.68 158.785 1473.68 161.66H1475.15ZM1460.19 148.68L1460.46 147.238L1440.44 143.498L1440.17 144.94L1439.9 146.382L1459.92 150.122L1460.19 148.68ZM1440.17 144.94L1440.46 143.503C1430.16 141.413 1422.61 137.665 1417.64 132.385C1412.7 127.131 1410.18 120.218 1410.18 111.5H1408.71H1407.24C1407.24 120.822 1409.96 128.502 1415.51 134.395C1421.03 140.262 1429.21 144.214 1439.88 146.377L1440.17 144.94ZM1408.71 111.5H1410.18C1410.18 102.435 1413.84 95.0043 1421.28 89.1095L1420.37 87.96L1419.46 86.8105C1411.35 93.2357 1407.24 101.498 1407.24 111.5H1408.71ZM1420.37 87.96L1421.28 89.1073C1428.87 83.0671 1439.22 79.9667 1452.49 79.9667V78.5V77.0333C1438.77 77.0333 1427.71 80.2396 1419.46 86.8127L1420.37 87.96ZM1452.49 78.5V79.9667C1465.88 79.9667 1476.44 83.3466 1484.33 89.9634L1485.27 88.84L1486.21 87.7166C1477.67 80.5467 1466.38 77.0333 1452.49 77.0333V78.5ZM1485.27 88.84L1484.34 89.9716C1492.35 96.5814 1496.34 105.11 1496.34 115.68H1497.81H1499.28C1499.28 104.25 1494.91 94.8852 1486.2 87.7084L1485.27 88.84ZM1497.81 115.68V114.213H1473.17V115.68V117.147H1497.81V115.68ZM1473.17 115.68L1474.63 115.599C1474.32 109.961 1472.18 105.443 1468.15 102.215L1467.23 103.36L1466.31 104.505C1469.61 107.144 1471.43 110.839 1471.7 115.761L1473.17 115.68ZM1467.23 103.36L1468.17 102.237C1464.16 98.8682 1458.73 97.2733 1452.05 97.2733V98.74V100.207C1458.28 100.207 1462.96 101.692 1466.29 104.483L1467.23 103.36ZM1452.05 98.74V97.2733C1446.14 97.2733 1441.21 98.4849 1437.38 101.04L1438.19 102.26L1439 103.48C1442.21 101.342 1446.52 100.207 1452.05 100.207V98.74ZM1438.19 102.26L1437.39 101.031C1433.59 103.509 1431.66 107.13 1431.66 111.72H1433.13H1434.6C1434.6 108.097 1436.04 105.411 1438.99 103.488L1438.19 102.26ZM1433.13 111.72H1431.66C1431.66 115.447 1433.1 118.543 1435.94 120.882C1438.71 123.169 1442.74 124.661 1447.86 125.488L1448.09 124.04L1448.32 122.592C1443.46 121.806 1440.01 120.438 1437.8 118.618C1435.66 116.85 1434.6 114.593 1434.6 111.72H1433.13ZM1448.09 124.04L1447.81 125.48L1467.17 129.22L1467.45 127.78L1467.73 126.34L1448.37 122.6L1448.09 124.04ZM1467.45 127.78L1467.14 129.214C1477.85 131.529 1485.78 135.186 1491.1 140.079L1492.09 139L1493.08 137.921C1487.25 132.547 1478.76 128.724 1467.76 126.346L1467.45 127.78ZM1492.09 139L1491.11 140.093C1496.27 144.713 1498.98 151.803 1498.98 161.66H1500.45H1501.92C1501.92 151.277 1499.05 143.26 1493.07 137.907L1492.09 139ZM1500.45 161.66H1498.98C1498.98 171.876 1494.75 179.861 1486.2 185.752L1487.03 186.96L1487.86 188.168C1497.2 181.739 1501.92 172.858 1501.92 161.66H1500.45ZM1487.03 186.96L1486.2 185.749C1477.71 191.555 1466.8 194.513 1453.37 194.513V195.98V197.447C1467.22 197.447 1478.75 194.392 1487.86 188.171L1487.03 186.96Z" fill="#1E1E1E" mask="url(#path-4-outside-2_1_3)"/>
</svg>
